<svg width="20" height="20" viewBox="0 0 20 20" fill="none" xmlns="http://www.w3.org/2000/svg">
<g clip-path="url(#clip0_321_1457)">
<path d="M9.99996 1.66699C14.6025 1.66699 18.3333 5.39783 18.3333 10.0003C18.3333 14.6028 14.6025 18.3337 9.99996 18.3337C5.39746 18.3337 1.66663 14.6028 1.66663 10.0003C1.66663 5.39783 5.39746 1.66699 9.99996 1.66699ZM9.99996 3.33366C8.23185 3.33366 6.53616 4.03604 5.28591 5.28628C4.03567 6.53652 3.33329 8.23222 3.33329 10.0003C3.33329 11.7684 4.03567 13.4641 5.28591 14.7144C6.53616 15.9646 8.23185 16.667 9.99996 16.667C11.7681 16.667 13.4638 15.9646 14.714 14.7144C15.9642 13.4641 16.6666 11.7684 16.6666 10.0003C16.6666 8.23222 15.9642 6.53652 14.714 5.28628C13.4638 4.03604 11.7681 3.33366 9.99996 3.33366ZM9.99996 5.00033C10.2041 5.00035 10.4011 5.07529 10.5536 5.21092C10.7061 5.34655 10.8036 5.53345 10.8275 5.73616L10.8333 5.83366V9.65533L13.0891 11.9112C13.2386 12.0611 13.3254 12.2624 13.3318 12.474C13.3383 12.6856 13.2639 12.8918 13.1239 13.0506C12.9839 13.2094 12.7887 13.3089 12.5779 13.329C12.3671 13.3491 12.1566 13.2882 11.9891 13.1587L11.9108 13.0895L9.41079 10.5895C9.28128 10.4599 9.19809 10.2912 9.17413 10.1095L9.16663 10.0003V5.83366C9.16663 5.61264 9.25442 5.40068 9.4107 5.2444C9.56698 5.08812 9.77894 5.00033 9.99996 5.00033Z" fill="black"/>
</g>
<defs>
<clipPath id="clip0_321_1457">
<rect width="20" height="20" fill="white"/>
</clipPath>
</defs>
</svg>
