<svg width="16" height="16" viewBox="0 0 16 16" fill="none" xmlns="http://www.w3.org/2000/svg">
<g clip-path="url(#clip0_321_1466)">
<path d="M7.536 8.657L10.364 5.827C10.457 5.73416 10.5673 5.66053 10.6888 5.61034C10.8102 5.56014 10.9403 5.53435 11.0717 5.53444C11.2031 5.53454 11.3332 5.56051 11.4545 5.61088C11.5759 5.66125 11.6862 5.73502 11.779 5.828C11.8718 5.92098 11.9455 6.03133 11.9957 6.15276C12.0459 6.27419 12.0716 6.40431 12.0716 6.53571C12.0715 6.6671 12.0455 6.79719 11.9951 6.91855C11.9448 7.03991 11.871 7.15016 11.778 7.243L8.243 10.778C8.15019 10.871 8.03996 10.9449 7.91859 10.9953C7.79723 11.0457 7.66712 11.0717 7.53571 11.0718C7.40429 11.0719 7.27415 11.0461 7.15271 10.9958C7.03128 10.9456 6.92094 10.8719 6.828 10.779L4.708 8.659C4.61243 8.56682 4.53617 8.45653 4.48368 8.33456C4.43118 8.2126 4.4035 8.0814 4.40226 7.94862C4.40101 7.81584 4.42622 7.68415 4.47641 7.56122C4.52661 7.43829 4.60078 7.32658 4.69461 7.23262C4.78843 7.13867 4.90003 7.06433 5.02289 7.01397C5.14575 6.9636 5.27741 6.9382 5.41019 6.93926C5.54297 6.94032 5.67421 6.96781 5.79625 7.02013C5.91829 7.07246 6.02869 7.14856 6.121 7.244L7.536 8.657ZM8 16C5.87827 16 3.84344 15.1571 2.34315 13.6569C0.842855 12.1566 0 10.1217 0 8C0 5.87827 0.842855 3.84344 2.34315 2.34315C3.84344 0.842855 5.87827 0 8 0C10.1217 0 12.1566 0.842855 13.6569 2.34315C15.1571 3.84344 16 5.87827 16 8C16 10.1217 15.1571 12.1566 13.6569 13.6569C12.1566 15.1571 10.1217 16 8 16ZM8 14C8.78793 14 9.56815 13.8448 10.2961 13.5433C11.0241 13.2417 11.6855 12.7998 12.2426 12.2426C12.7998 11.6855 13.2417 11.0241 13.5433 10.2961C13.8448 9.56815 14 8.78793 14 8C14 7.21207 13.8448 6.43185 13.5433 5.7039C13.2417 4.97595 12.7998 4.31451 12.2426 3.75736C11.6855 3.20021 11.0241 2.75825 10.2961 2.45672C9.56815 2.15519 8.78793 2 8 2C6.4087 2 4.88258 2.63214 3.75736 3.75736C2.63214 4.88258 2 6.4087 2 8C2 9.5913 2.63214 11.1174 3.75736 12.2426C4.88258 13.3679 6.4087 14 8 14Z" fill="black"/>
</g>
<defs>
<clipPath id="clip0_321_1466">
<rect width="16" height="16" fill="white"/>
</clipPath>
</defs>
</svg>
