<svg width="9" height="10" viewBox="0 0 9 10" fill="none" xmlns="http://www.w3.org/2000/svg">
<path d="M8.52011 9.7564L5.30613 6.10357C5.04951 6.35207 4.75439 6.54438 4.42078 6.68049C4.08716 6.8166 3.75184 6.88465 3.4148 6.88465C2.59292 6.88465 1.89729 6.56129 1.32793 5.91457C0.75856 5.26785 0.473877 4.47743 0.473877 3.54332C0.473877 2.60921 0.758218 1.8184 1.3269 1.1709C1.89558 0.523404 2.59087 0.199266 3.41275 0.198488C4.23464 0.19771 4.93061 0.521266 5.50066 1.16915C6.07071 1.81704 6.35573 2.60785 6.35573 3.54157C6.35573 3.94679 6.2926 4.33899 6.16634 4.71815C6.04008 5.09732 5.87413 5.42165 5.66849 5.69115L8.88247 9.3434L8.52011 9.7564ZM3.41532 6.30074C4.09623 6.30074 4.67107 6.03435 5.13984 5.50157C5.60861 4.96879 5.84299 4.31527 5.84299 3.54099C5.84299 2.76671 5.60861 2.11338 5.13984 1.58099C4.67107 1.0486 4.09623 0.78221 3.41532 0.781821C2.7344 0.781432 2.15939 1.04782 1.69028 1.58099C1.22117 2.11415 0.986786 2.76749 0.987128 3.54099C0.98747 4.31449 1.22185 4.96782 1.69028 5.50099C2.15871 6.03415 2.73355 6.30054 3.4148 6.30015" fill="black"/>
</svg>
