<svg width="18" height="18" viewBox="0 0 18 18" fill="none" xmlns="http://www.w3.org/2000/svg">
<path d="M9 7.5C10.6569 7.5 12 6.15685 12 4.5C12 2.84315 10.6569 1.5 9 1.5C7.34315 1.5 6 2.84315 6 4.5C6 6.15685 7.34315 7.5 9 7.5Z" stroke="black" stroke-width="1.5"/>
<path d="M14.9985 13.5C15 13.377 15 13.2517 15 13.125C15 11.2613 12.3135 9.75 9 9.75C5.6865 9.75 3 11.2613 3 13.125C3 14.9887 3 16.5 9 16.5C10.6732 16.5 11.88 16.3822 12.75 16.1722" stroke="black" stroke-width="1.5" stroke-linecap="round"/>
</svg>
